<mxfile host="Electron" modified="2024-02-27T09:11:24.459Z" agent="Mozilla/5.0 (Windows NT 10.0; Win64; x64) AppleWebKit/537.36 (KHTML, like Gecko) draw.io/23.1.5 Chrome/120.0.6099.109 Electron/28.1.0 Safari/537.36" etag="Ej-B9w6uYwi70jAOeCyI" version="23.1.5" type="device">
  <diagram id="C5RBs43oDa-KdzZeNtuy" name="Page-1">
    <mxGraphModel dx="2049" dy="1194" grid="1" gridSize="10" guides="1" tooltips="1" connect="1" arrows="1" fold="1" page="1" pageScale="1" pageWidth="1169" pageHeight="1654" math="0" shadow="0">
      <root>
        <mxCell id="WIyWlLk6GJQsqaUBKTNV-0" />
        <mxCell id="WIyWlLk6GJQsqaUBKTNV-1" parent="WIyWlLk6GJQsqaUBKTNV-0" />
        <mxCell id="zkfFHV4jXpPFQw0GAbJ--0" value="User" style="swimlane;fontStyle=1;align=center;verticalAlign=top;childLayout=stackLayout;horizontal=1;startSize=26;horizontalStack=0;resizeParent=1;resizeLast=0;collapsible=1;marginBottom=0;rounded=0;shadow=0;strokeWidth=1;" parent="WIyWlLk6GJQsqaUBKTNV-1" vertex="1">
          <mxGeometry x="1080" y="450" width="180" height="420" as="geometry">
            <mxRectangle x="230" y="140" width="160" height="26" as="alternateBounds" />
          </mxGeometry>
        </mxCell>
        <mxCell id="zkfFHV4jXpPFQw0GAbJ--2" value="+ Name : varchar&#xa;&#xa;+ Email : varchar&#xa;&#xa;+ UserId : varchar&#xa;&#xa;+ Password : varchar&#xa;&#xa;+ NICNumber : varchar&#xa;&#xa;+ Adress : varchar&#xa;&#xa;+ TelephoneNumber : varchar" style="text;align=left;verticalAlign=top;spacingLeft=4;spacingRight=4;overflow=hidden;rotatable=0;points=[[0,0.5],[1,0.5]];portConstraint=eastwest;rounded=0;shadow=0;html=0;" parent="zkfFHV4jXpPFQw0GAbJ--0" vertex="1">
          <mxGeometry y="26" width="180" height="204" as="geometry" />
        </mxCell>
        <mxCell id="zkfFHV4jXpPFQw0GAbJ--4" value="" style="line;html=1;strokeWidth=1;align=left;verticalAlign=middle;spacingTop=-1;spacingLeft=3;spacingRight=3;rotatable=0;labelPosition=right;points=[];portConstraint=eastwest;" parent="zkfFHV4jXpPFQw0GAbJ--0" vertex="1">
          <mxGeometry y="230" width="180" height="8" as="geometry" />
        </mxCell>
        <mxCell id="0lepF5wsTiNH8ievduQB-8" value="+ SignUp ( )&#xa;&#xa;+ SignIn ( )&#xa;&#xa;+ ViewAccount ( )&#xa;&#xa;+ UpdateAccount ( )&#xa;&#xa;+ ResetPassword ( )&#xa;&#xa;+ LogOut ( ) " style="text;align=left;verticalAlign=top;spacingLeft=4;spacingRight=4;overflow=hidden;rotatable=0;points=[[0,0.5],[1,0.5]];portConstraint=eastwest;rounded=0;shadow=0;html=0;" parent="zkfFHV4jXpPFQw0GAbJ--0" vertex="1">
          <mxGeometry y="238" width="180" height="182" as="geometry" />
        </mxCell>
        <mxCell id="zkfFHV4jXpPFQw0GAbJ--17" value="Customer" style="swimlane;fontStyle=1;align=center;verticalAlign=top;childLayout=stackLayout;horizontal=1;startSize=26;horizontalStack=0;resizeParent=1;resizeLast=0;collapsible=1;marginBottom=0;rounded=0;shadow=0;strokeWidth=1;" parent="WIyWlLk6GJQsqaUBKTNV-1" vertex="1">
          <mxGeometry x="1860" y="510" width="160" height="280" as="geometry">
            <mxRectangle x="550" y="140" width="160" height="26" as="alternateBounds" />
          </mxGeometry>
        </mxCell>
        <mxCell id="zkfFHV4jXpPFQw0GAbJ--18" value="&#xa;+ ViewProduct ( )&#xa;&#xa;+ AddCart ( )&#xa;&#xa;+ PlaceOrder ( )&#xa;&#xa;+ MakePayment ( )&#xa;&#xa;+ ViewBill ( )&#xa;&#xa;+ GiveFeedback ( )&#xa;&#xa;+ CancelOrder ( )&#xa;&#xa;+ ViewOrderStatus ( )" style="text;align=left;verticalAlign=top;spacingLeft=4;spacingRight=4;overflow=hidden;rotatable=0;points=[[0,0.5],[1,0.5]];portConstraint=eastwest;" parent="zkfFHV4jXpPFQw0GAbJ--17" vertex="1">
          <mxGeometry y="26" width="160" height="254" as="geometry" />
        </mxCell>
        <mxCell id="0lepF5wsTiNH8ievduQB-9" value="Manager" style="swimlane;fontStyle=1;align=center;verticalAlign=top;childLayout=stackLayout;horizontal=1;startSize=26;horizontalStack=0;resizeParent=1;resizeLast=0;collapsible=1;marginBottom=0;rounded=0;shadow=0;strokeWidth=1;" parent="WIyWlLk6GJQsqaUBKTNV-1" vertex="1">
          <mxGeometry x="495" y="240" width="180" height="280" as="geometry">
            <mxRectangle x="130" y="380" width="160" height="26" as="alternateBounds" />
          </mxGeometry>
        </mxCell>
        <mxCell id="0lepF5wsTiNH8ievduQB-10" value="&#xa;+ InsertProduct ( )&#xa;&#xa;+ UpdateProduct ( )&#xa;&#xa;+ ViewOrders ( )&#xa;&#xa;+ AcceptOrder ( )&#xa;&#xa;+ CancelOrder ( )&#xa;&#xa;+ ViewCustomerInfo ( )&#xa;&#xa;+ GenerateDeliveryNotice ( )&#xa;&#xa;+ GenerateReport ( )&#xa;&#xa;" style="text;align=left;verticalAlign=top;spacingLeft=4;spacingRight=4;overflow=hidden;rotatable=0;points=[[0,0.5],[1,0.5]];portConstraint=eastwest;rounded=0;shadow=0;html=0;" parent="0lepF5wsTiNH8ievduQB-9" vertex="1">
          <mxGeometry y="26" width="180" height="254" as="geometry" />
        </mxCell>
        <mxCell id="0lepF5wsTiNH8ievduQB-15" value="Owner" style="swimlane;fontStyle=1;align=center;verticalAlign=top;childLayout=stackLayout;horizontal=1;startSize=26;horizontalStack=0;resizeParent=1;resizeLast=0;collapsible=1;marginBottom=0;rounded=0;shadow=0;strokeWidth=1;" parent="WIyWlLk6GJQsqaUBKTNV-1" vertex="1">
          <mxGeometry x="1670" y="100" width="190" height="320" as="geometry">
            <mxRectangle x="550" y="140" width="160" height="26" as="alternateBounds" />
          </mxGeometry>
        </mxCell>
        <mxCell id="0lepF5wsTiNH8ievduQB-16" value="&#xa;+ AddEmployee ( )&#xa;&#xa;+ RemoveEmployee ( )&#xa;&#xa;+ ViewOrders ( )&#xa;&#xa;+ AcceptOrder ( )&#xa;&#xa;+ ViewCustomerInformation ( )&#xa;&#xa;+ GenerateReports ( )&#xa;&#xa;+ GenerateDeleveryNotice ( )&#xa;&#xa;+ CancelOrder()" style="text;align=left;verticalAlign=top;spacingLeft=4;spacingRight=4;overflow=hidden;rotatable=0;points=[[0,0.5],[1,0.5]];portConstraint=eastwest;" parent="0lepF5wsTiNH8ievduQB-15" vertex="1">
          <mxGeometry y="26" width="190" height="294" as="geometry" />
        </mxCell>
        <mxCell id="0lepF5wsTiNH8ievduQB-32" style="edgeStyle=orthogonalEdgeStyle;rounded=0;orthogonalLoop=1;jettySize=auto;html=1;entryX=1;entryY=0.5;entryDx=0;entryDy=0;endArrow=block;endFill=0;" parent="WIyWlLk6GJQsqaUBKTNV-1" source="0lepF5wsTiNH8ievduQB-17" target="0lepF5wsTiNH8ievduQB-8" edge="1">
          <mxGeometry relative="1" as="geometry">
            <Array as="points">
              <mxPoint x="1905" y="870" />
              <mxPoint x="1360" y="870" />
              <mxPoint x="1360" y="779" />
            </Array>
          </mxGeometry>
        </mxCell>
        <mxCell id="0lepF5wsTiNH8ievduQB-17" value="Rider" style="swimlane;fontStyle=1;align=center;verticalAlign=top;childLayout=stackLayout;horizontal=1;startSize=26;horizontalStack=0;resizeParent=1;resizeLast=0;collapsible=1;marginBottom=0;rounded=0;shadow=0;strokeWidth=1;" parent="WIyWlLk6GJQsqaUBKTNV-1" vertex="1">
          <mxGeometry x="1810" y="950" width="190" height="150" as="geometry">
            <mxRectangle x="550" y="140" width="160" height="26" as="alternateBounds" />
          </mxGeometry>
        </mxCell>
        <mxCell id="0lepF5wsTiNH8ievduQB-18" value="+ ViewOrder ( )&#xa;&#xa;+ ConfirmPickup ( )&#xa;&#xa;+ CompleteOrder ( )&#xa;&#xa;+ UpdateOrder ( )&#xa;&#xa;" style="text;align=left;verticalAlign=top;spacingLeft=4;spacingRight=4;overflow=hidden;rotatable=0;points=[[0,0.5],[1,0.5]];portConstraint=eastwest;" parent="0lepF5wsTiNH8ievduQB-17" vertex="1">
          <mxGeometry y="26" width="190" height="114" as="geometry" />
        </mxCell>
        <mxCell id="0lepF5wsTiNH8ievduQB-35" style="edgeStyle=orthogonalEdgeStyle;rounded=0;orthogonalLoop=1;jettySize=auto;html=1;entryX=0;entryY=0.5;entryDx=0;entryDy=0;endArrow=none;endFill=0;exitX=0;exitY=0.5;exitDx=0;exitDy=0;" parent="WIyWlLk6GJQsqaUBKTNV-1" source="0lepF5wsTiNH8ievduQB-20" target="0lepF5wsTiNH8ievduQB-8" edge="1">
          <mxGeometry relative="1" as="geometry">
            <Array as="points">
              <mxPoint x="1020" y="1246" />
              <mxPoint x="1020" y="779" />
            </Array>
          </mxGeometry>
        </mxCell>
        <mxCell id="0lepF5wsTiNH8ievduQB-19" value="Product" style="swimlane;fontStyle=1;align=center;verticalAlign=top;childLayout=stackLayout;horizontal=1;startSize=26;horizontalStack=0;resizeParent=1;resizeLast=0;collapsible=1;marginBottom=0;rounded=0;shadow=0;strokeWidth=1;" parent="WIyWlLk6GJQsqaUBKTNV-1" vertex="1">
          <mxGeometry x="1070" y="1143" width="190" height="190" as="geometry">
            <mxRectangle x="550" y="140" width="160" height="26" as="alternateBounds" />
          </mxGeometry>
        </mxCell>
        <mxCell id="0lepF5wsTiNH8ievduQB-20" value="&#xa;+ Name ( )&#xa;&#xa;+ ProductCode ( )&#xa;&#xa;+ Price ( )&#xa;&#xa;+ Description ( )&#xa;&#xa;+ Quantity ( ) &#xa;" style="text;align=left;verticalAlign=top;spacingLeft=4;spacingRight=4;overflow=hidden;rotatable=0;points=[[0,0.5],[1,0.5]];portConstraint=eastwest;" parent="0lepF5wsTiNH8ievduQB-19" vertex="1">
          <mxGeometry y="26" width="190" height="154" as="geometry" />
        </mxCell>
        <mxCell id="0lepF5wsTiNH8ievduQB-21" value="Order" style="swimlane;fontStyle=1;align=center;verticalAlign=top;childLayout=stackLayout;horizontal=1;startSize=26;horizontalStack=0;resizeParent=1;resizeLast=0;collapsible=1;marginBottom=0;rounded=0;shadow=0;strokeWidth=1;" parent="WIyWlLk6GJQsqaUBKTNV-1" vertex="1">
          <mxGeometry x="650" y="850" width="190" height="250" as="geometry">
            <mxRectangle x="550" y="140" width="160" height="26" as="alternateBounds" />
          </mxGeometry>
        </mxCell>
        <mxCell id="0lepF5wsTiNH8ievduQB-22" value="&#xa;+ OrderName ( )&#xa;&#xa;+ OrderPrice ( )&#xa;&#xa;+ DeleveryCharge ( )&#xa;&#xa;+ Status ( )&#xa;&#xa;+ ShippingAddress ( )&#xa;&#xa;+ ShippingDate ( )&#xa;&#xa;+TotalAmount ( )&#xa;&#xa;" style="text;align=left;verticalAlign=top;spacingLeft=4;spacingRight=4;overflow=hidden;rotatable=0;points=[[0,0.5],[1,0.5]];portConstraint=eastwest;" parent="0lepF5wsTiNH8ievduQB-21" vertex="1">
          <mxGeometry y="26" width="190" height="224" as="geometry" />
        </mxCell>
        <mxCell id="0lepF5wsTiNH8ievduQB-40" style="edgeStyle=orthogonalEdgeStyle;rounded=0;orthogonalLoop=1;jettySize=auto;html=1;entryX=0;entryY=0.5;entryDx=0;entryDy=0;endArrow=block;endFill=0;startArrow=diamond;startFill=1;sourcePerimeterSpacing=2;" parent="WIyWlLk6GJQsqaUBKTNV-1" source="0lepF5wsTiNH8ievduQB-23" target="0lepF5wsTiNH8ievduQB-26" edge="1">
          <mxGeometry relative="1" as="geometry">
            <Array as="points">
              <mxPoint x="335" y="1610" />
              <mxPoint x="1630" y="1610" />
              <mxPoint x="1630" y="1448" />
            </Array>
          </mxGeometry>
        </mxCell>
        <mxCell id="0lepF5wsTiNH8ievduQB-23" value="Payment" style="swimlane;fontStyle=1;align=center;verticalAlign=top;childLayout=stackLayout;horizontal=1;startSize=26;horizontalStack=0;resizeParent=1;resizeLast=0;collapsible=1;marginBottom=0;rounded=0;shadow=0;strokeWidth=1;" parent="WIyWlLk6GJQsqaUBKTNV-1" vertex="1">
          <mxGeometry x="240" y="1080" width="190" height="163" as="geometry">
            <mxRectangle x="550" y="140" width="160" height="26" as="alternateBounds" />
          </mxGeometry>
        </mxCell>
        <mxCell id="0lepF5wsTiNH8ievduQB-24" value="&#xa;+ PaymentId ( )&#xa;&#xa;+ PaymentDate ( )&#xa;&#xa;+ PaymentMethod ( )&#xa;&#xa;+ PaymentDate ( )&#xa;&#xa;" style="text;align=left;verticalAlign=top;spacingLeft=4;spacingRight=4;overflow=hidden;rotatable=0;points=[[0,0.5],[1,0.5]];portConstraint=eastwest;" parent="0lepF5wsTiNH8ievduQB-23" vertex="1">
          <mxGeometry y="26" width="190" height="114" as="geometry" />
        </mxCell>
        <mxCell id="0lepF5wsTiNH8ievduQB-25" value="Report" style="swimlane;fontStyle=1;align=center;verticalAlign=top;childLayout=stackLayout;horizontal=1;startSize=26;horizontalStack=0;resizeParent=1;resizeLast=0;collapsible=1;marginBottom=0;rounded=0;shadow=0;strokeWidth=1;" parent="WIyWlLk6GJQsqaUBKTNV-1" vertex="1">
          <mxGeometry x="1730" y="1350" width="190" height="170" as="geometry">
            <mxRectangle x="550" y="140" width="160" height="26" as="alternateBounds" />
          </mxGeometry>
        </mxCell>
        <mxCell id="0lepF5wsTiNH8ievduQB-26" value="&#xa;+ ReportNumber ( )&#xa;&#xa;+ ReportName ( )&#xa;&#xa;+ ReportDate ( )&#xa; &#xa;+ ReportInformation ( )" style="text;align=left;verticalAlign=top;spacingLeft=4;spacingRight=4;overflow=hidden;rotatable=0;points=[[0,0.5],[1,0.5]];portConstraint=eastwest;" parent="0lepF5wsTiNH8ievduQB-25" vertex="1">
          <mxGeometry y="26" width="190" height="144" as="geometry" />
        </mxCell>
        <mxCell id="0lepF5wsTiNH8ievduQB-27" value="Invoice" style="swimlane;fontStyle=1;align=center;verticalAlign=top;childLayout=stackLayout;horizontal=1;startSize=26;horizontalStack=0;resizeParent=1;resizeLast=0;collapsible=1;marginBottom=0;rounded=0;shadow=0;strokeWidth=1;" parent="WIyWlLk6GJQsqaUBKTNV-1" vertex="1">
          <mxGeometry x="730" y="1320" width="190" height="200" as="geometry">
            <mxRectangle x="550" y="140" width="160" height="26" as="alternateBounds" />
          </mxGeometry>
        </mxCell>
        <mxCell id="0lepF5wsTiNH8ievduQB-28" value="&#xa;+ InvoiceNumber ( )&#xa;&#xa;+ InvoiceDate ( )&#xa;&#xa;+ InvoiceInformation ( )&#xa;&#xa;+ Description ( )&#xa;&#xa;+Total ( )&#xa;&#xa;" style="text;align=left;verticalAlign=top;spacingLeft=4;spacingRight=4;overflow=hidden;rotatable=0;points=[[0,0.5],[1,0.5]];portConstraint=eastwest;" parent="0lepF5wsTiNH8ievduQB-27" vertex="1">
          <mxGeometry y="26" width="190" height="174" as="geometry" />
        </mxCell>
        <mxCell id="0lepF5wsTiNH8ievduQB-48" style="edgeStyle=orthogonalEdgeStyle;rounded=0;orthogonalLoop=1;jettySize=auto;html=1;entryX=0.75;entryY=1;entryDx=0;entryDy=0;startArrow=block;startFill=0;endArrow=diamond;endFill=1;" parent="WIyWlLk6GJQsqaUBKTNV-1" source="0lepF5wsTiNH8ievduQB-29" target="0lepF5wsTiNH8ievduQB-23" edge="1">
          <mxGeometry relative="1" as="geometry">
            <Array as="points">
              <mxPoint x="1555" y="1560" />
              <mxPoint x="382" y="1560" />
            </Array>
          </mxGeometry>
        </mxCell>
        <mxCell id="0lepF5wsTiNH8ievduQB-29" value="Sales_details" style="swimlane;fontStyle=1;align=center;verticalAlign=top;childLayout=stackLayout;horizontal=1;startSize=26;horizontalStack=0;resizeParent=1;resizeLast=0;collapsible=1;marginBottom=0;rounded=0;shadow=0;strokeWidth=1;" parent="WIyWlLk6GJQsqaUBKTNV-1" vertex="1">
          <mxGeometry x="1460" y="1010" width="190" height="180" as="geometry">
            <mxRectangle x="550" y="140" width="160" height="26" as="alternateBounds" />
          </mxGeometry>
        </mxCell>
        <mxCell id="0lepF5wsTiNH8ievduQB-30" value="&#xa;+ ProductId ( )&#xa;&#xa;+ ProductQuantity ( )&#xa;&#xa;+ Date ( )&#xa;&#xa;+ Total ( )&#xa;&#xa;&#xa;" style="text;align=left;verticalAlign=top;spacingLeft=4;spacingRight=4;overflow=hidden;rotatable=0;points=[[0,0.5],[1,0.5]];portConstraint=eastwest;" parent="0lepF5wsTiNH8ievduQB-29" vertex="1">
          <mxGeometry y="26" width="190" height="144" as="geometry" />
        </mxCell>
        <mxCell id="0lepF5wsTiNH8ievduQB-31" style="edgeStyle=orthogonalEdgeStyle;rounded=0;orthogonalLoop=1;jettySize=auto;html=1;entryX=0.997;entryY=0.897;entryDx=0;entryDy=0;entryPerimeter=0;endArrow=block;endFill=0;" parent="WIyWlLk6GJQsqaUBKTNV-1" source="zkfFHV4jXpPFQw0GAbJ--18" target="zkfFHV4jXpPFQw0GAbJ--2" edge="1">
          <mxGeometry relative="1" as="geometry">
            <Array as="points">
              <mxPoint x="1475" y="710" />
              <mxPoint x="1475" y="659" />
            </Array>
          </mxGeometry>
        </mxCell>
        <mxCell id="0lepF5wsTiNH8ievduQB-33" style="edgeStyle=orthogonalEdgeStyle;rounded=0;orthogonalLoop=1;jettySize=auto;html=1;entryX=0.005;entryY=0.857;entryDx=0;entryDy=0;entryPerimeter=0;endArrow=block;endFill=0;" parent="WIyWlLk6GJQsqaUBKTNV-1" source="0lepF5wsTiNH8ievduQB-9" target="zkfFHV4jXpPFQw0GAbJ--2" edge="1">
          <mxGeometry relative="1" as="geometry" />
        </mxCell>
        <mxCell id="0lepF5wsTiNH8ievduQB-34" style="edgeStyle=orthogonalEdgeStyle;rounded=0;orthogonalLoop=1;jettySize=auto;html=1;entryX=1.002;entryY=0.37;entryDx=0;entryDy=0;entryPerimeter=0;endArrow=block;endFill=0;exitX=0.003;exitY=0.402;exitDx=0;exitDy=0;exitPerimeter=0;" parent="WIyWlLk6GJQsqaUBKTNV-1" source="0lepF5wsTiNH8ievduQB-16" target="zkfFHV4jXpPFQw0GAbJ--2" edge="1">
          <mxGeometry relative="1" as="geometry">
            <mxPoint x="1410" y="218" as="sourcePoint" />
            <mxPoint x="1269" y="551.48" as="targetPoint" />
            <Array as="points">
              <mxPoint x="1320" y="216" />
              <mxPoint x="1320" y="552" />
            </Array>
          </mxGeometry>
        </mxCell>
        <mxCell id="0lepF5wsTiNH8ievduQB-37" style="edgeStyle=orthogonalEdgeStyle;rounded=0;orthogonalLoop=1;jettySize=auto;html=1;entryX=-0.003;entryY=0.835;entryDx=0;entryDy=0;entryPerimeter=0;endArrow=diamond;endFill=1;startArrow=block;startFill=0;sourcePerimeterSpacing=2;" parent="WIyWlLk6GJQsqaUBKTNV-1" source="0lepF5wsTiNH8ievduQB-21" target="0lepF5wsTiNH8ievduQB-20" edge="1">
          <mxGeometry relative="1" as="geometry" />
        </mxCell>
        <mxCell id="0lepF5wsTiNH8ievduQB-38" style="edgeStyle=orthogonalEdgeStyle;rounded=0;orthogonalLoop=1;jettySize=auto;html=1;entryX=0.001;entryY=0.436;entryDx=0;entryDy=0;entryPerimeter=0;startArrow=diamond;startFill=1;endArrow=block;endFill=0;sourcePerimeterSpacing=2;" parent="WIyWlLk6GJQsqaUBKTNV-1" source="0lepF5wsTiNH8ievduQB-23" target="0lepF5wsTiNH8ievduQB-22" edge="1">
          <mxGeometry relative="1" as="geometry" />
        </mxCell>
        <mxCell id="0lepF5wsTiNH8ievduQB-39" style="edgeStyle=orthogonalEdgeStyle;rounded=0;orthogonalLoop=1;jettySize=auto;html=1;entryX=0;entryY=0.5;entryDx=0;entryDy=0;endArrow=block;endFill=0;startArrow=diamond;startFill=1;targetPerimeterSpacing=0;sourcePerimeterSpacing=2;" parent="WIyWlLk6GJQsqaUBKTNV-1" source="0lepF5wsTiNH8ievduQB-20" target="0lepF5wsTiNH8ievduQB-30" edge="1">
          <mxGeometry relative="1" as="geometry" />
        </mxCell>
        <mxCell id="0lepF5wsTiNH8ievduQB-41" value="&lt;b&gt;1 ...&amp;nbsp;&lt;/b&gt;" style="text;html=1;align=center;verticalAlign=middle;whiteSpace=wrap;rounded=0;" parent="WIyWlLk6GJQsqaUBKTNV-1" vertex="1">
          <mxGeometry x="1010" y="1213" width="60" height="30" as="geometry" />
        </mxCell>
        <mxCell id="0lepF5wsTiNH8ievduQB-42" value="&lt;b&gt;&lt;font style=&quot;font-size: 23px;&quot;&gt;*&lt;/font&gt;&lt;/b&gt;" style="text;html=1;align=center;verticalAlign=middle;whiteSpace=wrap;rounded=0;" parent="WIyWlLk6GJQsqaUBKTNV-1" vertex="1">
          <mxGeometry x="1030" y="760" width="60" height="30" as="geometry" />
        </mxCell>
        <mxCell id="0lepF5wsTiNH8ievduQB-43" value="&lt;b&gt;&lt;font style=&quot;font-size: 23px;&quot;&gt;*&lt;/font&gt;&lt;/b&gt;" style="text;html=1;align=center;verticalAlign=middle;whiteSpace=wrap;rounded=0;" parent="WIyWlLk6GJQsqaUBKTNV-1" vertex="1">
          <mxGeometry x="1030" y="1219.5" width="50" height="17" as="geometry" />
        </mxCell>
        <mxCell id="0lepF5wsTiNH8ievduQB-45" style="edgeStyle=orthogonalEdgeStyle;rounded=0;orthogonalLoop=1;jettySize=auto;html=1;entryX=1.006;entryY=0.832;entryDx=0;entryDy=0;endArrow=diamond;endFill=1;startArrow=block;startFill=0;sourcePerimeterSpacing=0;targetPerimeterSpacing=4;entryPerimeter=0;" parent="WIyWlLk6GJQsqaUBKTNV-1" source="0lepF5wsTiNH8ievduQB-28" target="0lepF5wsTiNH8ievduQB-24" edge="1">
          <mxGeometry relative="1" as="geometry" />
        </mxCell>
        <mxCell id="0lepF5wsTiNH8ievduQB-46" style="edgeStyle=orthogonalEdgeStyle;rounded=0;orthogonalLoop=1;jettySize=auto;html=1;entryX=-0.011;entryY=0.253;entryDx=0;entryDy=0;entryPerimeter=0;endArrow=block;endFill=0;startArrow=diamond;startFill=1;" parent="WIyWlLk6GJQsqaUBKTNV-1" edge="1">
          <mxGeometry relative="1" as="geometry">
            <mxPoint x="1652.09" y="1108" as="sourcePoint" />
            <mxPoint x="1730" y="1412.4319999999998" as="targetPoint" />
            <Array as="points">
              <mxPoint x="1710" y="1108" />
              <mxPoint x="1710" y="1412" />
            </Array>
          </mxGeometry>
        </mxCell>
        <mxCell id="0lepF5wsTiNH8ievduQB-49" style="edgeStyle=orthogonalEdgeStyle;rounded=0;orthogonalLoop=1;jettySize=auto;html=1;entryX=0.25;entryY=1;entryDx=0;entryDy=0;startArrow=diamond;startFill=1;endArrow=block;endFill=0;" parent="WIyWlLk6GJQsqaUBKTNV-1" source="0lepF5wsTiNH8ievduQB-28" target="0lepF5wsTiNH8ievduQB-29" edge="1">
          <mxGeometry relative="1" as="geometry" />
        </mxCell>
      </root>
    </mxGraphModel>
  </diagram>
</mxfile>
